<?xml version="1.0" encoding="UTF-8" standalone="no"?>
<svg width="389.77" xmlns="http://www.w3.org/2000/svg" height="368.75">
 <defs>
  <linearGradient id="svg_12">
   <stop stop-color="#aad4ff" stop-opacity=".996" offset=".015625"/>
   <stop stop-color="#c7e5cf" stop-opacity=".992" offset="1"/>
  </linearGradient>
  <linearGradient id="svg_11">
   <stop stop-color="#aad4ff" offset="0"/>
   <stop stop-color="#c7e5cf" stop-opacity=".988" offset="1"/>
  </linearGradient>
  <linearGradient id="svg_23" y1=".59375" x2=".96484" x1=".43359" y2=".019531">
   <stop id="stop31" stop-color="#ffa" stop-opacity=".996" offset="0"/>
   <stop id="stop33" stop-color="#fb0" stop-opacity=".996" offset=".96094"/>
  </linearGradient>
  <linearGradient id="svg_2" y1="1" x2="0.5" x1="0.5" y2=".000002">
   <stop id="stop70" stop-color="#7f00ff" stop-opacity=".996" offset="0"/>
   <stop id="stop72" stop-color="#d4aaff" stop-opacity=".996" offset="1"/>
  </linearGradient>
  <linearGradient id="svg_1" y1=".078125" x2=".72266" x1=".070313" y2=".80469">
   <stop id="stop22" stop-color="#ff0" stop-opacity=".996" offset="0"/>
   <stop id="stop24" stop-color="#ff7f00" stop-opacity=".996" offset="1"/>
  </linearGradient>
  <linearGradient id="svg_9">
   <stop stop-color="#aad4ff" offset="0"/>
   <stop stop-color="#c7e5cf" stop-opacity=".992" offset="1"/>
  </linearGradient>
 </defs>
 <g fill-rule="evenodd">
  <path id="path19" d="m91.152 53.063c-55.512 26.784-91.152 85.645-91.152 150.48 0 91.225 69.516 165.2 155.3 165.2 33.336 0 60.516-8.964 87.983-29.052h-0.070999c-5.221 0.25201-10.44 0.504-15.696 0.79199-93.78 0-169.78-80.892-169.78-180.61 0-36.648 10.476-72.396 33.408-106.81z"/>
  <path id="path26" fill="url(#svg_1)" d="m81 63.792c-48.924 27.827-75.744 79.199-75.744 144.04 1.332 78.444 63 156.24 142.13 156.17 34.164 0 49.571-1.439 81.756-20.7-15.48 0.071991-15.408 0.72098-15.408 0.72098-99.864-9.973-157.54-94.824-160.2-176.11-0.324-7.849-2.7-60.625 27.468-104.11z"/>
  <path id="path28" d="m230.22 121.43c-0.468-3.456-1.548-6.336-3.097-8.641-1.691-2.411-4.535-4.067-6.443-5.363-1.944-1.261-2.844-1.729-4.788-2.088-2.052-0.433-4.428-0.685-7.272-0.612 0.36-9.972 0.036011-18.972-1.115-27.432-1.225-8.532-3.889-16.561-5.904-22.969-2.052-6.443-3.924-11.7-6.444-15.191-2.592-3.564-5.58-4.717-8.964-5.977-3.492-1.439-8.496-2.412-11.52-1.8-3.024 0.684-4.716 2.952-6.732 5.688-2.124 2.663-4.032 5.903-5.868 10.115-2.736-9.18-5.616-16.812-8.496-23.58-3.024-6.804-6.084-12.743-9.036-16.416-2.952-3.708-4.716-4.248-8.496-5.363-3.96-1.188-10.332-2.124-14.4-1.692-4.068 0.288-6.696 0.685-9.828 3.672-3.276 2.809-6.516 7.38-9.324 13.86-2.844 6.516-5.976 16.164-7.452 24.912-1.548 8.676-1.8 19.403-1.872 26.892-0.216 7.309 0.108 12.924 0.828 16.992-3.276-4.536-6.876-8.64-11.196-12.456-4.32-3.96-10.26-8.244-14.364-10.476-4.248-2.232-7.38-2.809-10.368-2.557-3.132 0.288-5.94 1.98-7.74 3.96-1.8 1.801-3.744 1.44-2.916 7.38 0.72 6.049 3.708 18.072 7.452 28.297 3.6 10.079 8.928 22.464 14.616 31.716 5.688 9.071 12.276 16.271 19.188 22.571 6.732 6.229 13.824 10.944 21.564 14.725 7.776 3.78 15.876 6.191 24.732 7.632-7.848 6.444-14.724 12.672-20.772 19.26-6.12 6.336-10.008 11.232-15.408 19.548-5.544 8.496-12.384 20.628-17.028 30.564-4.608 9.828-8.352 19.584-10.404 27.72-2.196 7.884-2.952 14.04-2.124 20.124 0.828 6.192 4.572 12.168 7.2 16.416 2.484 4.068 6.156 5.544 7.956 7.92 1.692 2.268 1.656 4.248 2.664 5.94 1.08 1.584 1.728 2.447 3.456 3.96 1.512 1.439 3.564 2.195 5.868 5.04 2.34 2.808 5.184 8.892 7.704 11.592 2.484 2.483 4.572 3.708 6.66 3.672 1.836-0.14499 3.384-1.512 4.788-3.96 1.332-2.556 1.692-8.208 3.456-10.729 1.764-2.628 4.536-2.987 6.66-4.535 1.944-1.62 3.636-3.133 5.076-4.824 2.556-0.071991 5.616-0.53998 9.036-1.404 3.456-0.97198 7.128-2.16 11.448-3.96-0.39601 1.476-0.18001 2.88 0.79199 4.5 0.864 1.656 1.944 3.312 4.788 4.824 2.736 1.188 8.496 1.728 11.988 3.132 3.456 1.332 5.508 2.844 8.784 5.364 3.204 2.447 6.948 7.416 10.116 9.359 2.952 1.765 5.148 1.908 8.244 1.98 3.097 0 7.849-1.26 10.368-1.44 2.269-0.17999 2.952 0.75601 3.996 0.28799 1.008-0.61099 1.908-1.836 2.412-3.672 1.8 0.216 2.988-0.071991 3.708-0.86401 0.612-1.008 0.756-3.023 0.28799-4.248-0.648-1.188-1.44-2.124-3.492-2.808-2.196-0.82797-6.696-0.79199-8.784-1.98-1.979-1.296-2.52-4.176-3.42-5.436-1.151-1.296-1.764-1.296-2.952-2.484-1.26-1.296-3.492-3.888-4.176-5.292-0.68399-1.548-1.26-1.512-0.071991-3.779 1.08-2.376 3.816-6.229 6.66-10.188 2.7-3.996 5.977-8.676 9.828-13.896 2.088 6.3 3.996 11.556 6.12 16.164 2.016 4.464 5.076 8.279 6.12 11.016 0.828 2.664-0.648 2.844-0.53999 5.112 0.035995 2.231 0.43199 5.939 1.332 8.208 0.82799 2.088 2.628 3.636 3.996 5.075 1.368 1.44 3.672 2.124 3.996 3.708 0.14401 1.513-1.98 3.349-2.916 5.364-1.08 1.944-2.845 4.248-3.204 6.229-0.324 1.907 0.035995 4.536 1.08 5.111 0.972 0.396 2.664-1.332 4.248-2.268 1.439-0.89999 3.096-1.908 4.536-3.42 1.296-1.764 2.268-4.716 3.456-6.48 1.079-1.8 2.592-2.483 3.168-3.996 0.396-1.728 0.034988-4.067-0.252-5.651-0.39601-1.512-1.297-2.412-1.584-3.672-0.433-1.368 0.216-2.88-0.53999-4.536-0.828-1.908-2.952-3.708-3.996-5.94-1.152-2.231-2.053-3.996-2.412-7.092-0.36-3.168 0.43201-6.66 0.28801-11.592-0.181-5.076-0.39601-11.484-1.62-18.108-1.404-6.624-3.564-13.572-6.624-21.24 1.8-1.619 3.527-4.355 5.328-8.207 1.764-3.961 3.672-10.404 5.04-15.013 1.26-4.644 2.195-8.892 2.664-12.744 3.779 2.664 8.567 5.257 14.363 7.92 5.796 2.521 15.084 5.725 20.232 7.668 4.932 1.801 7.56 2.376 9.828 3.673 2.231 1.296 3.348 2.52 3.492 3.96-1.261 0.396-2.16 1.008-2.412 1.691-0.396 0.685-0.21698 1.729 0.54001 2.557 0.72 0.75601 1.907 1.367 3.708 1.979l-6.372 11.052c-0.324 1.332 0.071014 2.053 1.044 2.557 0.89899 0.46799 2.52 0.323 4.716-0.036011l5.724-9.9c0.612 0.071991 1.261-0.14401 1.944-0.504 0.57599-0.46802 1.188-1.08 1.836-1.979 0.97198 0.68399 1.764 0.79199 2.772 0.323 0.97198-0.504 1.764-1.548 2.771-3.275 1.224 0.03598 2.196-0.28802 2.916-1.116 0.72-0.79201 1.224-1.908 1.368-3.78 0.107-1.979-0.28799-4.752-0.89999-8.172l21.492-42.66c0.17999 1.332 0.53998 2.376 1.225 3.42 0.647 0.97301 1.619 1.801 2.771 2.484 1.224-1.152 2.196-2.412 2.772-3.924 0.54001-1.548 0.79202-3.096 0.75601-4.933 1.439 0.864 2.7 1.513 4.176 1.656 1.404 0.145 2.736-0.072006 4.14-0.647-0.54001-2.305-1.26-4.068-2.16-5.725-0.97202-1.656-2.052-2.916-3.384-3.924 1.944-2.016 3.276-4.176 3.996-6.479 0.612-2.305 0.612-4.752 0-7.344-2.448 0.144-4.5 0.756-6.156 1.979-1.728 1.116-2.951 2.844-3.815 5.04-0.396-1.656-1.404-3.168-2.628-4.392-1.261-1.332-3.132-2.376-5.221-3.276-0.17999 2.196-0.070984 4.428 0.46899 6.696 0.46802 2.195 1.332 4.428 2.592 6.695-2.269 0.57599-4.212 1.692-6.12 2.952-1.872 1.224-3.564 2.988-5.076 4.896 1.512 0.46901 2.952 1.009 4.608 1.477 1.62 0.468 3.204 0.89999 4.896 1.296l-22.571 36.612c-1.152-0.93701-2.124-1.26-3.061-0.97301-0.89899 0.217-1.584 2.053-2.483 2.448-1.08 0.252-2.305-0.647-3.673-0.468-1.548 0.216-3.312 1.728-4.607 1.476-1.225-0.43199-1.225-1.728-2.628-3.456-1.513-1.836-3.385-4.5-6.444-7.02-3.312-2.7-8.063-5.904-12.456-8.352-4.428-2.412-10.008-4.753-13.68-6.049-3.816-1.439-6.552-2.195-8.604-2.268-1.224-4.428-1.836-7.92-1.836-10.62-0.035995-2.808 0.89999-4.716 1.692-5.724 0.756-1.116 2.196-1.656 2.771-0.504 0.46901 1.079 0.46901 3.42 0 7.02 1.62-1.98 2.593-4.86 2.772-8.64 0.072006-3.889-1.692-10.8-1.548-14.076 0.144-3.384 1.296-5.508 2.771-5.544 1.477-0.072006 3.276 1.62 5.832 5.22-0.647-6.443-0.89899-12.312-0.75598-18.288 0.108-6.012 2.232-11.951 1.512-16.991-0.86301-5.148-3.6-9.757-6.264-13.248-2.771-3.564-6.696-6.12-9.684-7.668-2.952-1.692-6.12-1.692-7.992-1.801-2.015 0.001999-3.203 0.362-3.707 1.478zm-30.132 64.44l-1.584-1.691-2.845 2.447 1.225 2.088c0.28799-0.647 0.72-1.079 1.296-1.584 0.576-0.541 1.08-0.864 1.908-1.26z"/>
  <path id="path35" fill="url(#svg_23)" d="m230 123.48c-0.070999-2.736-0.504-5.04-1.439-7.2-0.972-2.124-2.34-3.96-4.104-5.508-2.016-1.728-4.571-3.24-7.128-3.996-2.592-0.792-5.544-1.008-8.027-0.359-2.521 0.539-4.896 0.756-7.128 4.14-2.448 3.492-4.177 11.628-7.128 16.344-2.988 4.572-7.236 8.424-10.512 10.98-3.348 2.412-6.444 2.916-9.288 3.6-2.916 0.576-5.652 0.468-8.208-0.17999-0.144 1.476-0.43199 2.88-0.72 4.355-0.36 1.368-0.72 2.809-1.224 4.177 0.43201 0.575 1.44 1.079 3.024 1.512 1.584 0.324 3.528 0.576 6.228 0.75601-1.908 0.972-3.456 1.979-4.644 3.42-1.296 1.332-2.052 2.916-2.664 4.752 3.528 0.28799 6.3 0.972 8.748 1.908 2.34 0.899 3.744 2.16 5.328 3.78 1.44 1.476 1.98 3.852 3.42 5.327 1.368 1.368 3.564 2.341 4.788 3.204 1.116 0.828 1.836 1.404 2.16 1.729-0.216-2.088 0.072006-3.924 0.72-5.508 0.612-1.692 1.728-2.952 3.204-4.177 2.017 1.152 3.528 1.836 4.824 1.908 1.188 0 2.016-0.46799 2.484-1.548-2.881-1.512-4.248-3.276-4.645-5.292-0.43201-2.196 1.008-5.076 2.664-6.84 1.728-1.764 4.968-2.448 7.344-3.42 2.269-1.008 4.176-1.44 5.868-2.844 1.477-1.62 2.232-4.536 3.384-6.265 1.009-1.764 2.088-3.096 3.385-4.14 1.296-1.116 2.735-1.836 4.464-2.304 2.88 0.647 5.184 2.34 6.768 4.932 1.584 2.556 1.656 7.164 2.7 10.62 0.936 3.492 1.62 7.2 3.023 9.864 1.297 2.447 2.952 4.212 4.969 5.147-1.404 3.708-3.061 6.624-4.969 8.892-1.943 2.196-5.292 3.204-6.588 4.572-1.439 1.296-0.79199 2.269-1.8 3.601-1.08 1.331-2.628 2.735-4.644 4.355 2.124 1.044 3.744 2.556 5.004 4.536 1.116 1.943 1.836 4.752 2.304 7.02 0.36 2.088 0.612 3.996 0.36 5.725 1.655-0.36 3.023-0.145 4.104 0.936 1.008 1.044 1.729 2.7 2.16 5.112 1.188 0.035995 1.98 0.53999 2.664 1.512 0.612 1.008 0.972 2.269 1.08 4.176 1.332-1.439 1.944-2.987 2.124-4.932 0.035995-1.944-1.188-4.104-1.44-6.624-0.35899-2.52-0.35899-6.229 0-8.352 0.324-2.232 1.332-3.708 2.341-4.572 0.936-0.864 2.52-1.188 3.384-0.53999 0.72 0.612 1.188 1.8 1.26 3.96 0.18001-2.592 0.18001-4.86 0-7.2-0.28799-2.34-1.08-4.5-1.26-6.624-0.216-2.16-0.108-4.752 0.17999-6.264 0.14401-1.692 0.43201-2.736 1.26-3.42 0.72099-0.756 2.412-1.44 3.564-0.937 1.151 0.53999 2.124 1.765 3.204 3.96-1.044-2.447-1.584-5.363-1.62-8.892-0.035995-3.708 0.75598-8.28 1.26-12.168 0.324-3.78 1.656-6.948 1.08-10.62-0.64798-3.96-2.7-8.928-4.644-12.132-2.196-3.276-4.824-5.184-7.309-6.84-2.448-1.62-5.004-2.628-6.983-3.024-2.017-0.468-3.78-0.468-5.148 0-1.478 0.362-2.666 0.866-3.566 1.91z"/>
  <path id="path43" style="vector-effect:non-scaling-stroke" d="m233.96 124.24c2.699-0.071999 5.256 0.648 7.668 2.448 2.34 1.62 5.328 4.284 6.624 7.992 1.188 3.852 0.323 9.684 0.899 14.58 0.54001 4.644 1.261 9.18 2.305 13.464-1.188-4.104-2.089-8.316-2.845-13.068-0.828-4.824-0.50401-11.556-1.8-15.191-1.332-3.744-3.996-4.933-6.048-6.624-2.195-1.765-4.463-2.917-6.803-3.601z"/>
  <path id="path45" d="m232.74 130.1c2.952 0.54001 5.221 2.52 6.948 6.084 1.548 3.528 2.016 10.836 3.204 14.976 1.188 4.104 2.664 7.021 4.284 9.288-1.26-3.384-2.448-6.947-3.564-11.376-1.151-4.464-1.439-11.376-3.204-14.615-1.836-3.205-4.392-4.609-7.668-4.357z"/>
  <path id="path47" d="m244.15 163.12c-0.107-0.468-3.708-6.588-4.824-9.468-1.08-2.988-1.332-6.876-1.584-7.776-0.35901-0.86301-0.86301 0.648-0.54001 2.448 0.21701 1.729 0.97301 5.4 2.124 7.956 1.152 2.412 4.752 7.236 4.824 6.84z"/>
  <path id="path49" d="m245.38 174.13c-0.505 2.124-0.72101 4.284-0.505 6.624 0.145 2.34 0.72099 4.607 1.584 7.199-1.115-2.448-1.979-4.607-2.304-6.623-0.35899-2.124-0.35899-4.284 0-5.509 0.217-1.187 0.577-1.799 1.225-1.691z"/>
  <path id="path51" d="m239.69 177.73c0.071991 1.944-0.54001 4.032-1.979 6.264-1.513 2.196-3.673 4.536-6.769 7.021 3.096-3.132 5.256-5.796 6.769-7.992 1.439-2.232 2.051-3.997 1.979-5.293z"/>
  <path id="path53" d="m239.87 189.86c-1.367 2.736-2.376 5.22-3.023 7.596-0.72101 2.305-1.08 4.5-1.08 6.444-0.468-2.808-0.468-5.076 0-7.2 0.43201-2.231 1.872-4.104 2.664-5.328 0.683-1.188 1.115-1.692 1.439-1.512z"/>
  <path id="path55" d="m225.07 127.66c-1.403-2.088-2.952-3.312-4.644-3.815-1.8-0.53999-3.456-0.28799-5.544 0.756-2.124 1.008-4.5 2.736-7.128 5.328 3.42-2.592 6.228-4.284 8.567-4.933 2.232-0.792 3.637 0.252 5.185 0.756 1.44 0.396 2.628 1.08 3.564 1.908z"/>
  <path id="path57" d="m222.91 132.95c-0.899-1.115-2.268-1.655-4.104-1.332-2.016 0.181-4.428 0.433-6.948 2.845-2.52 2.483-5.04 6.155-7.848 11.592 2.556-5.076 5.364-8.641 8.567-10.836 3.097-2.305 6.589-2.881 10.333-2.269z"/>
  <path id="path59" d="m193.68 154.58c-2.304 2.628-4.104 5.111-5.544 7.596-1.476 2.483-2.484 4.788-3.024 7.2 0.396-3.78 1.152-6.876 2.664-9.288 1.476-2.52 3.312-4.356 5.904-5.508z"/>
  <path id="path61" d="m186.73 152.68c-2.844 1.151-5.148 2.376-7.308 3.815-2.196 1.44-3.852 2.916-5.364 4.717 3.708-2.521 6.624-4.429 8.748-5.868 2.088-1.512 3.348-2.268 3.924-2.664z"/>
  <path id="path63" d="m195.8 135.04c-2.952 4.141-6.264 7.381-9.792 9.864-3.708 2.448-8.172 4.284-11.592 4.933-3.42 0.539-6.084 0.035004-8.388-1.513 1.656 0.864 4.032 1.044 7.128 0.396 3.096-0.72099 7.596-2.088 11.412-4.393 3.816-2.303 7.416-5.399 11.232-9.287z"/>
  <path id="path65" d="m191.02 136.94c-3.276 2.88-6.3 4.968-8.928 6.265-2.772 1.296-5.004 1.691-7.128 1.331 3.24-0.827 6.264-1.8 8.928-3.06 2.736-1.368 4.932-2.736 7.128-4.536z"/>
  <path id="path67" d="m201.71 119.66c2.124-3.239 4.212-5.292 6.407-6.443 2.196-1.26 3.889-1.332 6.444-0.36 2.376 1.044 5.04 3.204 7.992 6.624-3.42-3.204-6.444-5.112-9.072-5.868-2.7-0.71999-4.86 0.181-6.768 1.332-2.015 0.971-3.635 2.591-5.003 4.715z"/>
  <path id="path74" fill="url(#svg_2)" d="m171.94 162.86c-2.52-0.79201-5.328-1.224-8.136-0.899-2.844 0.21599-5.328 0.21599-9.108 2.376-3.996 2.052-9.648 6.731-14.04 10.296-4.536 3.492-7.452 6.479-12.204 10.907-4.788 4.429-11.052 9.504-15.876 15.084-4.824 5.437-8.856 10.98-12.924 17.316-4.32 6.3-8.568 13.68-11.916 20.052-3.348 6.336-5.508 11.7-7.848 17.604-2.52 5.76-5.004 11.844-6.48 16.884-1.62 4.896-2.412 7.776-2.376 12.816-0.108 5.004 0.828 12.023 2.664 17.027 1.908 4.86 6.012 8.893 8.568 12.096 2.34 2.988 4.536 4.465 5.76 6.229 1.044 1.692 0.54 2.808 1.404 4.176 0.89999 1.225 2.484 2.196 4.068 3.744 1.548 1.512 3.096 2.844 5.184 5.364 2.052 2.483 4.752 7.2 6.732 9.432 1.8 2.016 3.06 3.204 4.356 3.564 1.224 0.396 2.304 0.17999 3.384-1.332 1.116-1.765 2.376-6.12 3.204-8.353 0.68401-2.268-0.18-2.844 1.296-4.5 1.512-1.691 5.328-3.563 7.56-5.22 2.124-1.764 3.636-2.196 4.932-4.788 1.188-2.664 1.836-7.812 2.376-10.728 0.28799-2.916-0.36-5.112 0.28799-6.589 0.648-1.619 3.024-1.403 3.924-2.663 0.828-1.404 1.62-2.448 1.26-4.933-0.43201-2.483-2.988-6.876-3.78-9.864-0.864-3.023-2.304-5.579-1.404-8.352 0.828-2.844 4.824-5.688 6.3-8.676 1.296-3.204 1.728-6.696 1.98-9.504 0.28799-2.845-1.008-5.148-0.576-7.309 0.28801-2.231 1.08-3.852 2.376-5.832 1.26-2.088 2.772-4.176 4.932-6.407-1.476-0.72099-2.736-0.576-4.212 0.287-1.584 0.79201-3.132 2.484-4.356 5.076-1.224 2.557-1.692 6.912-2.664 10.152-1.044 3.132-2.268 6.012-3.672 8.496-1.584 2.268-4.104 4.032-5.616 5.688-1.692 1.548-2.952 1.836-4.068 4.177-1.224 2.304-1.224 7.308-2.916 9.863-1.836 2.521-4.464 4.212-7.884 5.221 2.988-1.404 5.148-2.952 6.48-4.645 1.296-1.692 0.792-3.528 1.404-5.508 0.43201-2.16 0.576-4.968 1.8-6.876 1.188-1.944 3.888-2.88 5.616-4.464 1.584-1.729 2.844-3.349 4.212-5.4 1.26-2.124 2.988-5.76 3.384-7.164 0.21599-1.476-0.39601-2.052-1.692-1.332-1.368 0.64801-4.536 3.636-6.444 5.221-2.124 1.512-3.492 2.808-5.616 3.743-2.196 0.68503-5.184 0.43301-7.164 1.188-2.16 0.79199-3.672 1.836-5.076 3.42 0.936-2.088 2.34-3.528 4.212-4.464 1.944-0.97299 4.608-0.396 6.876-1.188 1.908-0.97202 3.42-2.735 5.508-4.176 2.124-1.584 6.3-3.78 7.128-4.644 0.648-0.864-1.296-0.685-3.06-0.433-1.908 0.145-5.184 1.332-7.884 1.477-2.772-0.035995-5.76-1.261-8.424-1.188-2.808 0-5.292 0.53999-7.848 1.477l5.904-2.809c0.684-0.43201 1.656-0.54001 3.06-0.468 1.224 0.071991 2.916 0.936 5.076 1.044 2.088 0 5.58-0.252 7.992-0.756 2.412-0.53999 4.752-1.332 6.444-2.521 1.548-1.403 1.656-3.239 3.24-5.075 1.62-1.801 4.284-4.572 6.192-5.544 1.728-1.08 3.348-0.72099 4.464-0.576 1.08 0.10701 1.692 0.35901 1.98 1.044 1.224-0.864 2.808-2.305 5.04-4.464 2.16-2.232 4.644-4.572 7.884-8.389 3.132-3.852 6.732-8.676 10.944-14.615-0.756-1.549-1.692-3.133-2.808-4.753-1.224-1.655-2.448-3.312-4.068-5.111-1.224 2.231-2.916 4.572-5.076 6.876-2.304 2.304-5.616 5.292-7.992 7.02-2.376 1.477-4.392 2.593-5.904 2.376-1.62-0.28799-2.736-1.296-3.348-3.708-0.79199-2.592-0.936-6.876-0.576-10.907 0.39601-4.141 1.152-8.244 3.24-12.996 1.98-4.788 5.724-10.836 8.712-14.94 2.88-4.14 5.868-7.092 8.568-9.396 2.664-2.338 4.896-3.742 7.128-4.354z"/>
  <g fill="#fcc080">
   <path id="path76" d="m165.78 202.46c-0.972 1.513-2.052 3.204-3.528 4.933-1.476 1.62-3.384 3.78-5.184 5.364-1.98 1.548-4.32 3.456-6.048 4.176-1.872 0.576-3.276 0.936-4.212-0.433-0.936-1.476-1.404-4.68-1.26-8.063-0.072006-3.456 0.53999-8.136 1.836-12.24 1.224-4.248 3.24-8.532 6.048-12.852 2.844-4.464 7.416-10.188 10.656-13.14 3.132-2.881 5.94-3.673 8.136-4.32 1.98-0.82799 3.204-0.79199 4.356-0.32399 1.152 0.43199 1.908 1.98 2.664 2.988 0.72 0.936 0.828 1.836 1.692 2.7 0.79199 0.756 1.872 1.403 3.24 2.376 1.296 0.972 3.06 1.332 4.608 3.312 1.368 1.836 2.772 4.968 4.212 7.884 1.26 2.809 2.34 4.968 4.212 9.108 1.871 4.104 5.039 10.728 7.02 15.407 1.872 4.608 3.096 7.668 4.212 12.24 0.89999 4.572 1.188 11.16 1.836 14.76 0.504 3.492 0.468 2.845 1.692 5.832 1.224 2.809 3.456 6.408 5.724 11.196 2.124 4.824 5.437 11.556 7.452 17.136 1.944 5.364 3.492 10.297 4.644 15.229 1.045 4.932 1.692 9.107 1.944 14.04 0.108 4.859-0.53999 10.979-0.53999 14.472-0.072006 3.24-0.072006 3.132 0.828 5.22 0.93599 2.053 3.168 5.364 4.356 7.164 0.972 1.656 1.584 2.053 1.979 3.276 0.39601 1.188 0.072006 2.484 0.39601 3.744 0.17999 1.008 0.827 1.908 1.115 3.132 0.181 1.188 0.64801 2.952 0.433 4.32-0.32399 1.296-1.08 1.8-1.836 3.312-0.864 1.368-1.944 3.528-2.809 4.933-0.936 1.367-1.403 1.907-2.376 2.987-1.188 0.93701-2.447 1.836-3.636 2.7-1.152 0.72-2.412 2.016-2.952 1.944-0.612-0.216-0.612-1.584-0.144-2.988 0.43199-1.548 1.836-3.708 2.952-5.508 1.044-1.765 2.951-3.78 3.491-5.076 0.396-1.332 0.36-2.052-0.53999-3.132-0.972-1.296-3.779-2.592-5.075-4.176-1.477-1.513-2.593-3.024-3.061-5.076-0.54001-2.305 0.14499-6.3 0.252-8.101 0.035995-1.872 0.324-1.367-0.10701-2.808-0.612-1.512-1.837-3.132-3.385-6.12-1.691-3.132-4.536-7.812-6.3-12.096-1.836-4.393-3.24-9.396-4.5-13.752-1.368-4.428-2.592-8.137-3.384-12.24-0.79201-4.212-1.404-8.892-1.692-12.24-0.468-3.348-0.14401-5.508-0.828-7.596-0.827-2.268-2.052-3.096-3.527-5.256-1.512-2.232-3.061-4.068-5.473-7.596-2.627-3.744-6.552-9.253-9.396-13.608-2.772-4.428-5.256-8.208-7.308-11.772-2.124-3.6-3.672-6.443-5.328-9.071-1.872-2.809-3.096-5.148-5.04-6.876-2.016-1.765-4.176-3.097-6.336-3.42-2.124-0.396-4.788 0-6.444 1.188-1.764 1.116-3.168 2.952-4.068 5.508 1.98-2.268 3.708-3.852 5.328-4.607 1.512-0.756 2.592-0.756 4.068-0.28799 1.479 0.32199 3.171 1.007 4.935 2.194z"/>
   <path id="path78" d="m197.06 190.4c1.116-1.692 2.592-2.844 4.428-3.744 1.765-0.899 3.925-1.368 6.336-1.548 2.412-0.252 4.896-0.396 7.452 0.14401 2.305 0.46899 4.608 1.332 6.624 2.593 1.944 1.151 3.96 2.735 5.22 4.355 1.116 1.404 1.585 2.34 2.089 4.752 0.468 2.521 0.61101 6.732 0.86301 9.864 0.181 2.88 0.36 4.68 0.252 7.92-0.252 3.276-0.899 7.236-1.548 11.196-0.79199 3.744-1.403 6.695-2.808 11.628-1.477 4.932-3.384 10.764-5.868 17.784-1.044-2.269-2.124-4.608-3.24-6.732-1.26-2.16-2.628-4.392-3.527-6.408-0.93701-2.16-1.44-4.248-1.801-6.407-0.468-2.377-0.43199-4.824-0.72-7.345-0.32399-2.664-0.79199-5.22-1.404-8.063-0.72-2.809-1.655-5.04-2.951-8.641-1.513-3.815-3.889-9.684-5.473-13.283-1.584-3.637-2.844-6.193-3.924-8.065z"/>
   <path id="path80" d="m231.88 206.39c1.188-0.32399 2.124-0.181 2.808 0.43201 0.504 0.504 0.972 1.224 1.26 2.988 0.28799 1.764 0.576 4.248 0.72 7.596 0 3.204 0.181 7.884-0.287 12.096-0.46899 4.212-1.44 8.964-2.521 13.141-1.188 4.104-2.771 7.991-4.355 11.52-1.62 3.492-3.492 6.48-5.473 9.252-0.43201-1.332-0.756-2.483-1.26-3.6-0.43201-1.225-1.044-2.124-1.548-3.132 1.691-4.5 3.24-8.677 4.5-12.816 1.151-4.212 2.124-7.596 3.06-11.952 0.97301-4.464 2.088-10.116 2.664-14.328 0.504-4.357 0.648-7.958 0.43201-11.197z"/>
   <path id="path82" d="m244.66 212.04c2.232 0.181 4.896 0.828 7.849 1.944 2.987 1.008 6.084 2.556 9.972 4.5 3.708 1.979 9.36 4.968 12.636 7.308 3.132 2.232 4.86 4.141 6.732 6.265 1.872 1.979 3.24 4.571 4.5 5.832 1.08 1.115 1.404 1.188 2.52 1.332 1.008-0.072006 2.772-0.648 3.924-0.757 1.08-0.144 2.16 0.181 2.952 0.145 0.64801-0.145 1.261-0.43201 1.836-0.72 0.57602-0.46899 1.225-0.864 1.801-1.044 0.54001-0.252 1.008 0.035004 1.403 0.57501 0.181 0.53999 0.35998 2.053 0.14499 3.133-0.28799 1.008-0.79199 2.376-1.656 3.132-0.97198 0.53999-2.376 0.46799-3.384 0.756-0.97299 0.107-1.765 0.216-2.232 0.756-0.46698 0.53999-0.75598 1.44-0.72 2.7-0.612-0.433-1.404-0.53999-2.088-0.468-0.75601-0.035995-2.34 0.216-2.412 0.899-0.14499 0.64801 0.324 1.692 1.548 3.132-0.86398-0.68401-1.656-1.08-2.231-1.188-0.64801-0.14499-1.116 0-1.404 0.43201 0-0.864-0.46799-1.656-1.26-2.376-0.79199-0.72-2.053-1.368-3.78-2.088-1.908-0.972-4.393-1.836-7.309-2.988-2.951-1.224-6.876-2.376-10.26-3.6-3.563-1.26-6.228-1.944-10.512-3.852-4.356-2.124-9.36-4.681-15.3-8.209 0.14401-2.663 0.28801-5.111 0.28801-7.632 0-2.556-0.145-4.896-0.28801-7.308 0.61101 0.36 1.08 1.152 1.548 2.088 0.396 1.008 0.72 2.16 0.972 3.744 1.404-0.46799 2.304-1.224 3.096-2.268 0.60998-1.151 1.114-2.411 1.114-4.175z"/>
   <path id="path84" d="m304.16 245.48l-2.376 4.032c0.46899 0.756 0.43301 1.224 0.28799 1.8-0.323 0.43199-0.75598 1.152-1.691 1.188-1.008-0.035004-2.592-0.75601-3.78-1.188-1.296-0.612-2.376-1.584-3.384-1.944-1.08-0.54001-2.196-0.68401-2.521-0.43201-0.43201 0.18001-0.39603 1.476 0.396 2.231 0.79199 0.828 3.132 1.62 4.5 2.376 1.224 0.53999 1.979 1.08 3.24 1.332 1.224 0.28799 3.096 0.72099 4.212 0.32399 0.97198-0.57599 1.584-2.196 1.836-3.6 0.070984-1.548-0.396-4.212-0.57599-5.22-0.18002-1.079-0.18002-1.331-0.14401-0.899z"/>
   <path id="path86" d="m300.78 256.54c-0.324 0.93698-0.79199 1.584-1.403 1.944-0.612 0.28799-1.225 0.28799-2.232 0-1.224-0.36002-2.772-1.152-4.212-1.8-1.477-0.64798-3.204-1.477-4.212-2.089-1.116-0.791-1.729-1.439-1.836-1.943-0.14502-0.468 0.46799-1.188 1.296-1.044 0.75601-0.035995 1.872 0.79201 3.348 1.368 1.296 0.57501 3.492 1.691 4.788 2.231 1.152 0.433 2.088 0.72 2.521 0.72 0.646 0.181 1.294 0.397 1.942 0.61301z"/>
   <path id="path88" d="m295.45 259.09c-0.43201 0.505-0.75598 0.72101-1.115 1.045-0.36002 0.28699-0.181 0.57498-0.97299 0.43198-0.89902-0.396-2.952-1.332-4.212-2.232-1.439-0.89899-3.348-2.124-3.78-2.844-0.46802-0.72 0-1.26 1.261-1.476 0.61099 0.86301 1.728 1.8 3.204 2.664 1.511 0.82703 3.239 1.584 5.615 2.411z"/>
   <path id="path90" d="m174.89 213.91c-2.484 3.78-4.968 7.416-7.848 11.052-2.916 3.708-6.156 7.416-9.144 10.584-3.132 2.952-6.588 4.969-8.82 7.164-2.232 2.053-3.312 3.385-4.356 5.257-1.152 1.691-1.944 3.384-2.232 5.508-0.324 1.979 0.035995 4.824 0.10799 7.02-0.035995 2.088-0.071991 4.032-0.396 5.977-0.396 1.907-1.008 3.744-1.98 5.651-1.152 1.872-3.204 3.853-4.212 5.4-1.044 1.332-1.872 1.584-1.8 3.276-0.071991 1.728 1.044 4.392 1.944 7.02 0.86401 2.52 2.412 5.724 3.096 8.063 0.504 2.196 0.828 4.032 0.28799 5.652-0.68399 1.477-2.88 2.772-3.816 4.032-0.89999 1.116-1.404 1.62-1.656 3.456-0.468 1.872-0.144 5.292-0.57599 7.74-0.468 2.447-1.08 4.464-1.98 6.588 2.412-0.36002 5.22-1.008 8.568-1.944 3.276-0.936 7.02-2.232 11.232-3.744 0.324-2.16 1.224-4.5 3.096-7.02 1.8-2.484 4.32-5.221 7.56-8.208 3.096-3.24 7.452-6.588 10.98-10.584 3.348-4.032 6.156-8.496 9.252-12.96 3.024-4.536 6.156-9.072 9-13.896 2.808-4.824 5.185-9.792 7.561-14.904-1.908-2.483-3.924-5.184-6.192-8.388-2.376-3.312-5.076-7.164-7.416-10.728-2.34-3.528-4.824-7.38-6.48-10.152-1.729-2.88-2.989-5.184-3.781-6.912z"/>
   <path id="path92" d="m199.87 251.86c1.44 0.756 2.521 2.304 3.24 4.644 0.685 2.305 0.504 5.94 0.97301 9.252 0.323 3.204 0.972 7.416 1.403 10.009 0.36 2.52 0.82799 4.212 1.116 5.22-0.68401 2.088-1.8 4.716-3.78 7.74-2.052 3.023-5.184 7.199-7.848 10.439-2.808 3.24-6.084 6.264-8.028 8.676-1.944 2.16-2.592 3.204-3.348 4.933-0.828 1.655-1.62 3.348-1.404 5.22 0.035995 1.872 0.36 3.672 2.088 5.796 1.764 2.088 6.192 3.996 8.424 6.12 2.16 1.872 3.06 3.528 4.644 5.4 1.476 1.764 3.024 4.248 4.5 5.363 1.332 0.93701 2.448 0.685 3.78 0.75601 1.296-0.071014 2.88-0.647 3.924-0.46802 0.972 0.216 1.439 0.86401 1.691 1.656 0.181 0.64801-0.28699 1.764-0.575 2.376-0.32399 0.396-0.648 0.64801-1.513 0.75601-1.08 0.03598-2.628-0.28802-4.5 0-2.052 0.25198-4.248 1.26-6.588 1.512-2.231 0.071991-4.356 0.28799-6.768-0.89902-2.628-1.368-5.76-4.536-8.28-6.588-2.52-2.16-4.392-3.996-6.732-5.652-2.376-1.584-4.896-2.736-7.704-3.744-3.132-1.08-7.38-1.332-9.972-2.7-2.7-1.476-4.428-3.743-5.328-5.832-0.90001-2.124-1.224-4.031 0.28799-6.84 1.512-2.88 5.184-6.588 8.676-10.151 3.42-3.673 8.28-7.885 11.808-11.809 3.384-3.96 5.508-7.668 8.712-12.096 3.24-4.644 7.164-10.548 10.224-15.372 2.809-4.862 5.149-9.433 6.877-13.717z"/>
   <path id="path94" d="m207.32 283.32c0.28799 1.656 0.79199 3.024 1.116 4.5 0.28799 1.368 0.79199 2.664 1.116 3.888-1.62 2.34-3.348 5.076-5.616 8.208s-5.76 7.452-7.704 10.584c-2.088 3.024-3.636 5.761-4.212 7.632-0.612 1.729 0.035995 1.944 0.828 3.276 0.612 1.26 2.34 3.276 3.528 4.645 1.188 1.331 2.628 2.195 3.636 3.42 0.864 1.188 1.152 2.483 1.979 3.6 0.757 1.044 1.368 1.836 2.952 2.521 1.692 0.539 5.004 0.936 6.732 1.331 1.439 0.396 2.231 0.72098 2.808 1.368 0.648 0.64801 0.648 1.62 0.828 2.376 0 0.64801 0 1.152-0.43201 1.513-0.504 0.28799-1.296 0.57501-2.376 0.57501-0.108-1.296-0.433-2.195-1.116-2.699-0.68401-0.54001-1.8-0.685-2.808-0.57602-1.116 0.072021-2.7 0.68402-3.78 0.57602-1.225-0.28799-1.98-0.89999-3.24-2.232-1.44-1.512-3.168-4.428-4.896-6.264-1.729-1.872-3.601-3.132-5.473-4.608-1.98-1.476-4.644-3.023-5.904-4.5-1.296-1.764-1.728-3.6-1.692-5.364-0.036011-1.836 0.396-3.204 1.692-5.075 1.26-1.944 3.276-3.996 5.616-6.444 2.232-2.521 5.543-6.229 7.704-8.64 2.052-2.484 3.132-4.104 4.645-6.265 1.513-2.306 2.737-4.754 4.069-7.346z"/>
   <path id="path96" d="m224.32 137.2c1.224 0.14499 2.16 0.648 3.204 1.513 0.93599 0.75601 1.692 1.439 2.556 3.42 0.79199 1.836 1.404 5.22 2.232 8.208 0.68401 2.951 0.972 6.552 2.231 9.432 1.225 2.736 2.952 5.22 5.185 7.308-0.324 1.98-0.972 3.672-2.232 5.364-1.26 1.62-3.815 3.061-5.184 4.32-1.548 1.008-2.808 1.439-3.636 2.268s-0.28799 1.116-1.296 2.521c-1.044 1.296-2.772 2.987-5.04 5.22-1.62-1.152-3.456-1.944-5.904-2.376-2.448-0.504-5.904-0.612-8.424-0.468-2.592 0.070999-4.788 0.43199-6.732 1.079-0.468-0.756-0.936-1.619-1.548-2.987-0.68399-1.44-1.656-4.428-1.944-4.932-0.396-0.46901-0.070999 1.008 0 2.088 0.072006 1.044 0.072006 2.195 0.28801 3.888l-2.808 1.764c-0.72-1.872-1.476-3.312-2.124-4.752-0.72-1.439-1.368-2.592-1.944-3.6 0.18001-2.124 0.504-3.816 1.116-5.22 0.504-1.44 1.296-2.341 2.232-2.988 1.873 1.188 3.457 1.728 5.041 1.476 1.512-0.252 2.88-1.188 4.104-2.808-2.088-1.152-3.456-2.448-4.104-4.032-0.79201-1.691-0.93701-3.996 0-5.544 0.93599-1.512 3.132-2.7 5.472-3.708 2.231-1.188 5.832-1.584 7.74-2.844 1.728-1.368 1.979-2.916 3.096-4.645 0.972-1.8 2.088-4.536 3.492-5.976 1.367-1.513 3.059-2.557 4.931-2.989z"/>
  </g>
  <path id="path98" d="m220.86 166.64c0.685-0.54001 1.332-1.224 1.8-2.196 0.46899-1.115 0.828-2.556 0.937-3.744-0.072006-1.188-0.145-2.304-0.756-3.203-0.72101-1.009-1.692-1.765-2.916-2.269-1.188-0.468-3.132-0.612-4.032-0.828-0.93701-0.324-1.188-0.79201-1.44-1.26-0.35901-0.612-0.54001-1.116-0.54001-1.908-0.46799 1.512-0.61099 3.132-0.575 4.464 0.035004 1.261-0.108 2.484 0.936 3.816 0.972 1.296 3.672 3.24 4.896 4.464 1.15 1.152 1.582 2.088 1.69 2.664z"/>
  <path id="path100" fill="#fff" d="m221.29 157.9c-0.21701 0.72-0.505 1.404-0.86401 1.908-0.433 0.468-1.044 0.86401-1.44 1.188-0.468 0.181-0.828 0.252-1.224 0.072006 0.756 0.612 1.368 1.332 1.979 2.016 0.54001 0.68501 1.08 1.332 1.477 2.089 0.936-1.404 1.368-2.629 1.439-3.816 0.001007-1.225-0.50299-2.377-1.367-3.457z"/>
  <path id="path102" fill="#169253" d="m220.36 157.32c-0.072006-0.107-0.144-0.252-0.504-0.43201-0.39601-0.17999-0.79201-0.396-1.476-0.648 0.070999 0.97301 0.034988 1.548-0.25301 2.017-0.252 0.396-1.079 0.35901-1.367 0.43201-0.433-0.108-0.79199-0.68401-0.937-0.612-0.252 0-0.504 0.685-0.17999 1.08 0.21599 0.32399 1.116 0.937 1.872 1.008 0.68401 0 1.584-0.287 2.16-0.72 0.46899-0.46899 0.649-1.225 0.685-2.125z"/>
  <path id="path104" fill="#fff" d="m217.51 156.96c0 0.396-0.28799 0.72-0.648 0.72-0.324 0-0.61099-0.324-0.61099-0.72s0.28699-0.72099 0.61099-0.72099c0.36 0.000992 0.648 0.325 0.648 0.72099z"/>
  <path id="path106" d="m234.58 172.91c-0.575-0.756-1.296-1.332-2.159-1.728-0.93701-0.468-2.232-0.937-3.061-0.72-0.972 0.144-1.8 0.827-2.34 1.619-0.576 0.685-0.86401 1.404-1.008 2.557-0.252 1.044-0.14499 2.88-0.36 3.852-0.36 0.89999-0.864 1.332-1.368 1.44-0.576-0.108-1.548-1.152-1.8-1.188-0.36-0.070999-0.43199 0.54001-0.071991 1.008 0.36 0.433 1.152 1.44 1.98 1.477 0.68401-0.108 1.8-1.152 2.231-2.016 0.28799-0.937-0.035004-2.881 0.145-3.744 0.144-0.97301 0.46799-1.692 0.97198-2.017 0.216 0.79199 0.50401 1.296 1.008 1.656 0.433 0.28801 1.08 0.612 1.801 0.28801 0.68401-0.36 1.764-2.34 2.411-2.484 0.46901-0.35899 0.79201 0.828 1.116 0.937 0.28799 0.036011 0.82799 0 0.937-0.108 0.035004-0.14499-0.10901-0.46899-0.433-0.829z"/>
  <path id="path108" fill="#169253" d="m231.05 172.66c-0.39601-0.17999-0.72101-0.323-1.116-0.28799-0.468-0.070999-0.86401 0.071991-1.188 0.28799-0.35901 0.216-0.647 0.576-0.86301 1.08 0.54001 0.324 0.899 0.504 1.476 0.53999 0.468-0.071991 1.044-0.21599 1.44-0.43199 0.287-0.324 0.323-0.72 0.25101-1.188z"/>
  <path id="path110" d="m230.36 172.58c0 0.539-0.43199 0.972-1.008 0.972-0.576 0-1.044-0.433-1.044-0.972 0-0.50499 0.468-0.937 1.044-0.937s1.008 0.433 1.008 0.937z"/>
  <path id="path112" fill="#fff" d="m229.79 172.58c0 0.287-0.21599 0.50401-0.46799 0.50401-0.216 0-0.43201-0.21701-0.43201-0.50401 0-0.252 0.216-0.50499 0.43201-0.50499 0.252 0.000992 0.46799 0.254 0.46799 0.50499z"/>
  <path id="path114" d="m218.99 151.96c0.181 0.25299 3.097 1.045 4.176 2.089 0.97299 0.89899 1.225 2.231 1.729 3.456 0.36 1.079 0.108 2.735 0.612 3.312 0.504 0.43201 1.836 0.68401 2.052-0.216 0.071991-1.044-0.72-4.032-1.548-5.364-1.008-1.26-2.592-2.16-3.78-2.556-1.333-0.649-3.385-0.937-3.241-0.72099z"/>
  <path id="path116" d="m237.24 170.28c-0.61101-0.647-1.907-1.656-2.916-2.195-1.08-0.576-2.844-0.79199-3.348-0.648-0.612 0-0.72 0.864-0.17999 1.188 0.53999 0.25301 2.052 0.108 3.168 0.54001 1.008 0.324 1.872 1.009 2.592 1.368 0.468 0.324 0.936 0.36 1.008 0.396 0.072006-0.14499 0.144-0.181-0.32399-0.64899z"/>
  <path id="path118" d="m210.6 172.08c0.252 1.225 0.68399 2.341 1.439 3.204 0.72099 0.89999 1.944 1.368 2.845 2.088 0.79199 0.612 1.439 0.89999 1.943 1.549 0.36 0.504 0.39601 1.224 0.79201 1.728 0.433 0.36 1.368 0.36 1.692 0.828 0.17999 0.468-0.036011 1.26-0.252 1.836-0.324 0.43201-0.64801 0.864-1.368 0.90001-0.79199-0.072006-1.691-0.433-2.988-1.08l-0.432 1.367-4.284-0.287c-0.576-0.93701-0.972-2.124-1.188-3.564-0.32399-1.548-0.36-3.744-0.108-5.184 0.25301-1.477 0.93701-2.557 1.909-3.385z"/>
  <g fill="#7f1416">
   <path id="path120" d="m213.34 177.12c0.756 0.504 2.195 1.368 2.628 1.908 0.43199 0.54001 0.21599 1.188 0.61099 1.62 0.396 0.43199 1.368 0.576 1.729 0.937 0.324 0.35899 0.396 0.936 0.252 1.26-0.17999 0.35901-0.433 0.972-1.188 0.72-0.79199-0.21599-2.483-1.152-3.456-2.088-0.972-0.937-1.872-2.412-2.304-3.348-0.396-0.93701-0.18001-2.557-0.18001-2.557 1.08 0.43201 0.828 1.08 1.908 1.548z"/>
   <path id="path122" d="m210.42 174.82c-0.108 1.152 0.035004 2.232 0.43201 3.384 0.252 1.116 1.116 2.232 1.62 3.204 0.43201 0.89999 0.972 1.62 1.332 2.305-0.53999-0.10799-1.152-0.10799-1.692-0.14499-0.647-0.036011-1.26-0.036011-1.836 0-0.28799-0.79201-0.504-1.728-0.647-2.808-0.28799-1.152-0.576-2.772-0.433-3.744 0.072006-1.008 0.576-1.692 1.224-2.196z"/>
  </g>
  <path id="path124" d="m221.65 176.29c-0.28799-0.36-0.89899-0.828-1.296-0.72101-0.54001-0.107-1.26 0.504-1.188 0.72101 0.070999 0.17999 1.439 0.144 1.871 0.46799 0.46899 0.252 0.396 0.899 0.612 0.972 0.037003-0.181 0.18199-1.081 0.000992-1.44z"/>
  <path id="path131" fill="url(#svg_11)" d="m162.68 48.275c1.296 5.148 2.448 10.656 3.456 16.92 0.936 6.084 2.196 10.188 2.52 20.232 0.108 10.151-0.468 30.78-0.90001 40.067-0.43199 9.108-0.864 13.824-1.44 14.437 2.664 0.107 5.112-0.035995 7.776-0.576 2.556-0.504 4.896-1.224 7.596-2.7 2.592-1.728 6.012-4.68 8.172-6.912 2.052-2.304 2.916-4.104 4.14-6.372 1.152-2.411 1.692-5.184 2.736-7.487 0.89999-2.412 1.08-4.536 2.88-6.372 1.729-1.944 4.32-3.456 7.633-4.824 0.144-5.976 0.070999-11.844-0.36-17.892-0.43201-6.156-1.116-12.24-2.196-18.108-1.332-5.904-3.527-11.916-5.076-16.38-1.548-4.393-2.592-7.344-3.96-9.828-1.404-2.592-2.808-4.32-4.355-5.58-1.584-1.332-3.168-1.728-4.896-2.304-1.836-0.756-3.276-1.477-5.436-1.765-2.232-0.396-5.22-1.044-7.416 0-2.268 1.08-3.816 3.673-5.616 6.372-1.874 2.628-3.53 5.472-5.258 9.072z"/>
  <path id="path133" fill="url(#svg_12)" d="m170.14 153.14c-0.612 0.144-1.404 0.144-2.376 0-1.08-0.18001-2.34-0.504-3.78-0.972l-2.016 8.1 3.276-0.396c0.43199-1.944 0.89999-3.24 1.8-4.429 0.86401-1.151 1.764-1.871 3.096-2.303z"/>
  <path id="path140" fill="url(#svg_9)" d="m160.52 160.85c-2.304 0.43201-4.428 1.152-6.516 2.16-2.124 1.008-4.068 2.34-5.976 3.852-1.944 1.477-4.068 2.844-5.976 4.645-2.628-1.477-5.652-3.492-9.072-6.192-3.6-2.7-7.56-5.004-11.736-9.828-4.176-5.004-9.648-11.952-13.068-19.439-3.528-7.524-5.904-16.921-7.956-25.272-2.232-8.46-3.852-15.156-4.716-24.66-0.9-9.684-0.972-23.004-0.36-32.184 0.504-9.181 1.764-15.552 3.636-22.32 1.8-6.876 5.112-13.428 7.596-18.107 2.376-4.681 4.86-7.704 7.056-9.648 2.088-2.052 3.096-2.232 5.796-2.484 2.736-0.323 7.164 0 10.512 0.576 3.204 0.468 6.444 1.152 9.036 2.484 2.412 1.224 4.284 2.771 6.156 5.22 1.836 2.484 3.348 5.724 5.076 9.432 1.548 3.528 2.844 6.841 4.716 11.736 1.8 4.968 4.356 11.124 6.156 17.353 1.692 6.084 2.844 12.312 3.996 19.079 1.08 6.696 1.908 12.024 2.34 20.988 0.252 8.964 0 23.004-0.36 31.968-0.36 8.713-1.152 14.725-1.8 20.412-0.756 5.58-1.836 9.864-2.556 13.284-0.79199 3.381-1.404 5.649-1.98 6.945z"/>
  <path id="path147" fill="url(#svg_11)" d="m140.44 172.08c-3.096-1.512-6.192-3.491-9.432-5.796-3.276-2.412-6.552-4.392-9.972-8.279-3.636-4.068-7.848-10.116-10.836-15.229-2.988-5.147-5.112-10.08-6.912-15.191-1.944-5.112-2.628-8.713-4.14-15.229-1.548-6.66-3.24-14.616-5.076-24.264-3.384-3.853-6.516-7.452-9.972-10.656-3.564-3.42-7.272-6.516-10.296-8.856-2.988-2.231-5.436-3.888-7.632-4.823-2.34-1.08-4.428-1.656-5.976-1.729-1.584-0.252-2.124-0.071999-3.42 0.396-1.476 0.359-3.564 1.26-4.896 2.304-1.368 1.044-2.772 1.404-3.096 3.852-0.396 2.341-0.576 3.637 1.116 10.009 1.62 6.228 5.4 18.972 8.856 27.54 3.42 8.495 7.092 16.02 11.412 23.111 4.176 6.912 8.712 12.889 13.752 18.324 4.968 5.256 10.08 9.828 16.308 13.86 6.156 4.031 14.472 7.956 20.628 10.403 6.048 2.341 11.196 3.673 15.588 3.853 1.332-1.188 2.664-2.376 3.996-3.6z"/>
  <path id="path154" fill="#fc0" d="m340.27 177.16c0.071991 1.765 0.14499 3.349-0.17999 4.896-0.324 1.476-0.828 2.916-1.513 4.176-0.75601 1.224-1.619 2.052-2.735 2.88 1.404 1.08 2.412 2.304 3.42 3.815 0.936 1.44 1.62 3.133 2.196 5.076-0.828 0.36-1.908 0.36-3.24 0-1.44-0.43201-2.988-1.115-4.933-2.195 0.36002 1.439 0.36002 2.951 0 4.535-0.43198 1.549-1.224 3.133-2.376 4.896-0.86301-0.612-1.548-1.584-2.195-2.916-0.64801-1.44-1.225-3.096-1.729-5.256-1.151-0.035995-2.448-0.108-3.888-0.36-1.512-0.28799-3.168-0.647-4.968-1.08 2.052-2.124 3.924-3.708 5.616-4.896 1.655-1.188 3.132-1.908 4.428-2.16-1.404-2.7-2.557-4.859-3.061-6.876-0.68402-2.016-0.72-3.6-0.50403-4.896 1.512 0.575 2.772 1.548 3.924 2.916 1.116 1.296 2.124 3.023 2.881 5.039 1.079-2.628 2.195-4.499 3.743-5.76 1.478-1.294 3.134-1.906 5.114-1.834z"/>
  <path id="path161" style="vector-effect:non-scaling-stroke" fill="#ff7f00" d="m322.92 203.94l3.384-5.58v1.979l-21.924 42.553-4.104 7.056c-0.86401 0.144-1.764 0.035995-2.556-0.18001-0.86401-0.28799-1.656-0.72099-2.376-1.296l1.548-2.521c1.44-0.396 2.628-0.899 3.563-1.8 0.86401-0.89999 1.44-2.376 1.872-3.456 0.36002-1.224 0.57602-2.232 0.505-3.42 6.696-11.087 13.392-22.211 20.088-33.335zm-31.248 57.744c-1.009-0.75601-2.017-1.513-3.024-2.269l-6.228 10.261c-0.072021 0.43201 0.107 0.79202 0.827 1.079 0.685 0.181 1.62 0.46899 3.097 0.46899l5.328-9.54z"/>
  <path id="path163" d="m347.9 165.31c-0.216 3.348-2.34 7.956-4.428 10.404 0.57599-3.348 2.628-7.992 4.428-10.404z"/>
  <path id="path165" d="m332.71 154.76c-1.261 6.768-0.396 13.464-2.089 20.231-0.17899-4.571-2.303-16.343 2.089-20.231z"/>
  <path id="path167" d="m344.02 179.35c1.584-0.612 3.204-3.78 5.004-2.736-1.548 1.368-2.952 2.628-4.644 3.78-0.108-0.324-0.216-0.68401-0.36002-1.044z"/>
  <path id="path169" d="m340.6 167.22c-0.14502 1.908-0.97302 3.815-0.97302 5.724-1.979-0.035995-1.115-4.968 0.97302-5.724z"/>
  <path id="path171" d="m357.7 193.93c-1.8 1.296-15.588-3.385-16.164-5.221 5.688 0.97299 11.016 3.061 16.164 5.221z"/>
  <path id="path173" d="m335.23 167.58c0.828 1.08 0.216 5.473-0.828 6.553-1.296-1.117-0.03598-5.509 0.828-6.553z"/>
  <path id="path175" d="m354.82 197.6c-1.979 1.584-5.58-0.756-7.92-2.124 2.88-0.685 5.22 1.8 7.92 2.124z"/>
  <path id="path177" d="m350.53 205.63c-1.836-3.492-5.256-3.744-5.184-5.688 1.872 1.512 6.624 2.196 5.184 5.688z"/>
  <path id="path179" d="m322.45 173.3c-2.231-1.62-5.147-5.148-6.084-8.101 1.044 0.541 6.444 5.149 6.084 8.101z"/>
  <path id="path181" d="m321.7 177.3c-2.34 0.28801-2.844-1.404-4.572-3.024 2.376-0.396 3.852 2.052 4.572 3.024z"/>
  <path id="path183" d="m348.52 222.52c-2.772-2.88-4.572-6.408-5.977-10.152-0.46799-1.26-3.023-9.72-2.699-9.647 1.728 0.35899 3.492 7.523 4.176 9.107 1.476 3.564 2.988 7.128 4.5 10.692z"/>
  <path id="path185" d="m318.67 178.42c-5.112 1.151-9.288-5.293-12.564-7.74 1.296-0.829 12.312 8.099 12.564 7.74z"/>
  <path id="path187" d="m314.35 181.37c-0.108 2.196-4.968 0-5.436-0.972 2.016-0.936 3.672 0.397 5.436 0.972z"/>
  <path id="path189" d="m320.36 185.47c1.368 1.188-10.403 1.655-11.592 1.584-3.42-0.181-9.396 2.016-12.204 0.28801 7.956-2.304 15.876-0.828 23.796-1.872z"/>
  <path id="path191" d="m330.05 207.04c0.28799-0.10701-3.24 9.648-3.744 11.16-1.368-3.708 1.908-7.777 3.744-11.16z"/>
  <path id="path193" d="m317.95 189.65c1.549 1.296-10.619 5.22-12.239 5.939 1.763-4.067 8.855-3.96 12.239-5.939z"/>
  <path id="path195" d="m316.3 198.9c0.10702 2.124-3.133 3.563-5.328 4.824-0.35998-2.592 3.708-3.6 5.328-4.824z"/>
  <path id="path199" d="m347.18 185c-0.53998-0.936-1.512 0-1.98-1.115 2.809 0.10701 6.66-3.42 9.108-1.548-2.7 0.396-4.68 1.404-7.128 2.663 0.75601 1.332 2.088-0.791 2.771 0.864-1.512 0.828-3.023 0.79201-4.247-0.107 0.46799-0.25301 0.97198-0.505 1.476-0.757z"/>
  <path id="path201" d="m338.65 215.78c0.612 1.26-1.8-0.899-2.016-1.8-0.35998-1.872-0.181-3.996 0.39603-5.904 2.592 0.72-0.828 6.804 1.62 7.704z"/>
 </g>
</svg>
