<?xml version="1.0" standalone="no"?>
<!DOCTYPE svg PUBLIC "-//W3C//DTD SVG 20010904//EN"
 "http://www.w3.org/TR/2001/REC-SVG-20010904/DTD/svg10.dtd">
<svg version="1.0" xmlns="http://www.w3.org/2000/svg"
 width="1280.000000pt" height="1077.000000pt" viewBox="0 0 1280.000000 1077.000000"
 preserveAspectRatio="xMidYMid meet">
<g transform="translate(0.000000,1077.000000) scale(0.100000,-0.100000)"
fill="#000000" stroke="none">
<path d="M7249 10766 c-2 -2 -62 -9 -134 -15 -453 -39 -857 -146 -1240 -330
-391 -188 -727 -454 -950 -750 l-70 -93 -119 -59 c-689 -348 -1328 -798 -1791
-1263 -596 -598 -922 -1215 -976 -1846 -19 -231 7 -488 57 -557 42 -58 86
-103 101 -103 7 0 572 121 1255 270 684 148 1252 270 1262 270 17 0 18 -6 13
-59 -11 -99 -30 -133 -122 -211 -237 -201 -392 -403 -506 -661 -81 -182 -89
-211 -89 -313 0 -142 28 -231 169 -544 128 -285 145 -340 146 -482 0 -106 -2
-120 -28 -177 -16 -33 -41 -73 -56 -87 l-27 -26 -105 11 c-128 14 -343 6 -424
-16 -147 -41 -278 -133 -382 -268 -66 -86 -152 -262 -197 -402 -21 -66 -41
-129 -46 -141 -7 -17 -23 -23 -84 -33 -179 -29 -307 -144 -429 -387 -116 -231
-227 -539 -302 -836 -104 -411 -163 -571 -273 -736 -64 -96 -182 -230 -269
-307 l-71 -63 -154 -36 c-447 -105 -700 -105 -913 1 -142 71 -275 191 -401
361 -75 101 -77 103 -68 67 17 -74 77 -287 100 -360 54 -169 136 -296 233
-361 135 -91 330 -170 496 -200 147 -27 191 -27 325 -4 356 61 651 229 980
560 282 283 554 668 783 1110 162 312 238 411 362 470 121 58 242 52 460 -22
116 -39 122 -40 175 -28 70 15 185 75 274 142 139 105 381 353 454 467 l34 54
177 -6 c256 -8 407 -47 651 -168 305 -151 677 -448 922 -735 427 -500 775
-767 1129 -866 71 -19 108 -23 234 -23 92 0 170 5 201 13 l52 13 40 102 c22
56 64 163 92 237 73 187 186 418 259 528 75 111 199 244 293 314 42 31 65 55
60 60 -6 6 -90 58 -188 117 -177 106 -179 107 -182 144 -3 34 15 65 179 320
101 155 187 285 192 288 5 4 96 -22 201 -57 445 -149 724 -191 1123 -166 197
12 200 13 359 169 142 139 169 189 169 313 -1 76 -9 111 -73 329 -40 134 -71
250 -68 258 3 7 46 39 96 70 49 32 90 62 90 67 0 5 -29 47 -64 95 -35 47 -71
98 -80 113 l-18 27 63 48 c34 26 71 55 83 64 20 17 20 17 -26 115 -63 134 -73
183 -73 351 0 113 3 145 15 157 9 9 108 35 235 61 218 46 220 46 254 83 69 75
112 225 81 282 -7 12 -171 247 -366 521 -195 274 -354 501 -354 504 0 3 32 57
71 121 l71 115 -101 342 c-57 188 -118 378 -137 421 -44 102 -44 113 4 125 20
5 546 141 1167 300 622 160 1142 296 1157 302 35 14 95 80 104 113 22 89 -86
376 -227 603 -134 215 -400 501 -619 665 -751 565 -1869 877 -3137 878 l-232
0 -78 34 c-171 75 -382 139 -578 175 -103 19 -150 25 -397 51 -96 10 -271 14
-279 6z"/>
</g>
</svg>
